<?xml version="1.0" encoding="utf-8"?>
<!-- Generator: Adobe Illustrator 23.0.2, SVG Export Plug-In . SVG Version: 6.00 Build 0)  -->
<svg version="1.1" id="Layer_1" xmlns="http://www.w3.org/2000/svg" xmlns:xlink="http://www.w3.org/1999/xlink" x="0px" y="0px"
	 viewBox="0 0 95.67 39.64" style="enable-background:new 0 0 95.67 39.64;" xml:space="preserve">
<style type="text/css">
	.st0{fill:#0090BB;}
	.st1{fill:#383838;}
	.st2{fill:#EE7928;}
</style>
<g>
	<path class="st0" d="M5.73,31.6c-3.34-1.7-5.41-5.09-5.41-8.84c0-5.47,4.45-9.91,9.91-9.91c0.76,0,1.5,0.09,2.24,0.25
		c1.22-6.92,7.32-12.15,14.48-12.15c6.99,0,12.94,4.95,14.38,11.6c1.39-0.87,2.99-1.33,4.67-1.33c4.89,0,8.88,3.98,8.88,8.88h-2.33
		c0-3.61-2.94-6.54-6.54-6.54c-1.79,0-3.46,0.71-4.7,2l-1.83,1.89l-0.17-2.62C38.86,8.36,33.44,3.29,26.94,3.29
		c-6.43,0-11.85,5.02-12.34,11.43l-0.12,1.58l-1.47-0.58c-0.89-0.35-1.83-0.53-2.79-0.53c-4.18,0-7.58,3.4-7.58,7.58
		c0,2.87,1.59,5.45,4.14,6.76L5.73,31.6z"/>
	<path class="st1" d="M11.16,36.56c0.27,0.16,0.56,0.29,0.89,0.4c0.56,0.2,1.32,0.38,2.15,0.38c2.21,0,3.93-1.03,3.93-3.55v-1.12
		c0-0.25,0.02-0.4,0.04-0.56c0.02-0.09,0.02-0.18,0.02-0.25h-0.04c-0.69,1.25-1.81,2.06-3.58,2.06c-3.02,0-5.01-2.39-5.01-5.77
		c0-3.37,1.85-5.68,4.87-5.68c1.61,0,3.17,0.6,3.78,1.99h0.04c0-0.02,0-0.04-0.02-0.11c-0.02-0.07-0.02-0.18-0.02-0.38
		c0-0.83,0.33-1.23,1.3-1.23h2.01V24h-1.39c-0.34,0-0.49,0.16-0.49,0.47v9.25c0,3.57-2.64,4.96-5.41,4.96
		c-1.27,0-2.57-0.33-3.66-0.89L11.16,36.56z M18.16,28.16c0-3.29-1.59-4.31-3.55-4.31c-2.21,0-3.46,1.59-3.46,4.29
		c0,2.7,1.43,4.42,3.67,4.42C16.59,32.56,18.16,31.47,18.16,28.16"/>
	<path class="st1" d="M23.3,32.74h1.74V24.5c0-0.34-0.16-0.49-0.49-0.49h-1.52v-1.25h2.12c0.96,0,1.36,0.38,1.36,1.27v0.76
		c0,0.25,0,0.45-0.02,0.6c-0.02,0.09-0.02,0.18-0.02,0.25h0.04c0.56-1.7,1.79-2.99,3.55-2.99c0.16,0,0.31,0,0.42,0.02l0.2,0.04v1.5
		c-0.07,0-0.11,0-0.18-0.02c-0.07-0.02-0.2-0.02-0.4-0.02c-2.53,0-3.55,2.84-3.55,5.07v3.51h1.74v1.25H23.3V32.74z"/>
	<path class="st1" d="M37.53,22.48c3.11,0,4.72,2.39,4.72,5.18c0,0.16,0,0.29-0.02,0.45l-0.04,0.27h-8.63
		c0.07,2.88,2.03,4.51,4.36,4.51c1.05,0,1.88-0.34,2.48-0.67c0.36-0.2,0.67-0.42,0.94-0.67l0.69,1.14
		c-0.34,0.29-0.69,0.54-1.12,0.78c-0.72,0.42-1.77,0.78-3.04,0.78c-3.33,0-5.88-2.41-5.88-5.88C31.99,24.7,34.49,22.48,37.53,22.48
		 M40.66,27.27c-0.07-2.39-1.52-3.51-3.17-3.51c-1.88,0-3.51,1.23-3.87,3.51H40.66z"/>
	<path class="st1" d="M44.68,36.81c0.11,0.11,0.27,0.2,0.43,0.27c0.27,0.16,0.65,0.27,1.07,0.27c1.01,0,1.72-0.8,2.15-1.79l0.63-1.5
		L44.93,24h-1.47v-1.25h4.72V24h-1.63l2.95,7.66c0.07,0.2,0.11,0.38,0.13,0.56l0.04,0.25h0.07c0-0.07,0.02-0.16,0.04-0.25
		c0.07-0.16,0.11-0.36,0.18-0.56L52.9,24h-1.63v-1.25h4.65V24h-1.48l-4.78,12.07c-0.65,1.61-1.85,2.61-3.44,2.61
		c-0.63,0-1.16-0.16-1.54-0.33c-0.22-0.11-0.42-0.22-0.58-0.34L44.68,36.81z"/>
	<path class="st1" d="M58.51,24H56.5v-1.25h2.03v-3.11h1.5v3.11h2.84V24h-2.84v5.77c0,2.61,1.68,2.99,2.55,2.99
		c0.2,0,0.31,0,0.38-0.02c0.07-0.02,0.11-0.02,0.13-0.02v1.32c-0.07,0-0.11,0-0.18,0.02c-0.07,0.02-0.22,0.02-0.47,0.02
		c-1.3,0-3.93-0.42-3.93-4.18V24z"/>
	<polygon class="st2" points="64.7,31.97 66.45,31.97 66.45,21.4 64.7,21.4 64.7,19.37 70.92,19.37 70.92,21.4 69.15,21.4 
		69.15,25.63 75.81,25.63 75.81,21.4 74.03,21.4 74.03,19.37 80.26,19.37 80.26,21.4 78.51,21.4 78.51,31.97 80.26,31.97 
		80.26,33.99 74.03,33.99 74.03,31.97 75.81,31.97 75.81,27.79 69.15,27.79 69.15,31.97 70.92,31.97 70.92,33.99 64.7,33.99 	"/>
	<path class="st2" d="M82.32,31.97h1.75V21.4h-1.75v-2.04h6.45c1.07,0,1.96,0.06,2.78,0.31c1.65,0.56,2.7,1.85,2.7,3.91
		c0,2.06-1.05,3.48-2.76,4.06v0.04l0.25,0.19c0.14,0.14,0.33,0.31,0.47,0.58l1.69,3.05c0.23,0.39,0.49,0.47,0.99,0.47h0.47v2.02
		h-1.71c-1.19,0-1.59-0.25-2.04-1.09l-2.08-3.77c-0.31-0.56-0.58-0.74-1.42-0.74h-1.34v3.58h1.69v2.02h-6.14V31.97z M89.2,26.23
		c1.42,0,2.35-0.84,2.35-2.41c0-0.97-0.35-1.69-1.15-2.02c-0.39-0.19-0.95-0.27-1.65-0.27h-1.98v4.7H89.2z"/>
</g>
</svg>
